<svg width="1024" height="1024" viewBox="0 0 1024 1024" fill="none" xmlns="http://www.w3.org/2000/svg">
<rect width="1024" height="1024" rx="512" fill="#0D0D0D"/>
<path opacity="0.2" d="M528.7 532.922H387.593V714.662H556.774C623.264 714.662 653.554 674.768 653.554 623.792C653.554 577.249 624.742 532.922 528.7 532.922ZM317.409 247.752H527.223C643.95 247.752 700.837 305.377 700.837 381.472C700.837 432.448 674.979 472.342 624.742 494.505V495.983C689.755 512.975 725.955 559.518 725.955 623.792C725.955 699.148 672.024 775.981 556.035 775.981H317.409V247.752ZM387.593 472.342H516.141C609.966 472.342 631.391 430.97 631.391 385.166C631.391 344.532 599.623 308.332 528.7 308.332H387.593V472.342Z" fill="white"/>
<path opacity="0.2" d="M387.593 486.379H541.998C622.526 486.379 661.681 458.305 661.681 394.77C661.681 340.1 630.652 306.855 558.252 306.855H387.593V486.379ZM317.409 247.752H556.774C677.196 247.752 733.343 305.377 733.343 391.076C733.343 462.738 691.232 514.452 612.921 526.273L632.869 534.399C674.24 551.391 691.232 595.718 703.053 634.135C718.567 685.111 736.298 740.52 766.588 775.981H686.061C663.897 754.557 644.689 701.364 635.824 656.299C622.526 586.114 587.803 546.22 515.402 546.22H387.593V775.981H317.409V247.752Z" fill="white"/>
<path opacity="0.2" d="M259.768 515.191C259.768 329.018 381.667 236.67 513.909 236.67C668.314 236.67 765.095 359.308 765.095 507.065C765.095 651.127 680.873 786.324 512.431 786.324C363.197 786.324 259.768 671.813 259.768 515.191ZM330.691 515.93C330.691 608.278 378.712 727.96 512.431 727.96C641.718 727.96 694.171 620.098 694.171 508.542C694.171 393.292 628.42 295.034 513.17 295.034C401.614 295.034 330.691 380.733 330.691 515.93Z" fill="white"/>
<path opacity="0.2" d="M375.337 599.412L472.856 247.752H552.644L646.47 597.935L669.372 694.715H670.111L694.49 593.502L778.712 247.752H848.896L705.572 775.981H635.388L531.958 397.725L511.272 320.891H510.534L490.587 397.725L385.679 775.981H313.279L175.865 247.752H247.527L328.793 593.502L350.957 694.715H351.695L375.337 599.412Z" fill="white"/>
<path opacity="0.2" d="M702.665 399.941L634.697 402.157C630.264 331.234 580.766 293.557 505.41 293.557C435.965 293.557 386.466 325.324 386.466 382.21C386.466 414.717 413.801 432.448 440.397 442.791C487.679 461.26 585.199 482.685 623.615 497.46C685.673 520.363 721.873 561.734 721.873 629.702C721.873 727.222 628.048 786.324 520.925 786.324C388.683 786.324 301.506 719.834 299.29 604.584L365.042 601.629C371.691 702.842 460.345 727.222 520.186 727.222C593.325 727.222 652.428 696.193 652.428 633.396C652.428 597.935 633.958 576.51 595.542 560.257C556.386 543.265 463.3 524.057 411.585 504.109C362.087 484.901 317.021 450.178 317.021 385.166C317.021 293.557 401.981 237.409 504.671 237.409C621.399 237.409 698.971 293.557 702.665 399.941Z" fill="white"/>
<path opacity="0.2" d="M317.147 775.981V247.752H690.232V309.071H387.332V473.081H670.285V533.661H387.332V715.401H697.62V775.981H317.147Z" fill="white"/>
<path opacity="0.2" d="M387.593 486.379H541.998C622.526 486.379 661.681 458.305 661.681 394.77C661.681 340.1 630.652 306.855 558.252 306.855H387.593V486.379ZM317.409 247.752H556.774C677.196 247.752 733.343 305.377 733.343 391.076C733.343 462.738 691.232 514.452 612.921 526.273L632.869 534.399C674.24 551.391 691.232 595.718 703.053 634.135C718.567 685.111 736.298 740.52 766.588 775.981H686.061C663.897 754.557 644.689 701.364 635.824 656.299C622.526 586.114 587.803 546.22 515.402 546.22H387.593V775.981H317.409V247.752Z" fill="white"/>
<path opacity="0.2" d="M528.7 532.922H387.593V714.662H556.774C623.264 714.662 653.554 674.768 653.554 623.792C653.554 577.249 624.742 532.922 528.7 532.922ZM317.409 247.752H527.223C643.95 247.752 700.837 305.377 700.837 381.472C700.837 432.448 674.979 472.342 624.742 494.505V495.983C689.755 512.975 725.955 559.518 725.955 623.792C725.955 699.148 672.024 775.981 556.035 775.981H317.409V247.752ZM387.593 472.342H516.141C609.966 472.342 631.391 430.97 631.391 385.166C631.391 344.532 599.623 308.332 528.7 308.332H387.593V472.342Z" fill="white"/>
<path opacity="0.2" d="M528.7 532.922H387.593V714.662H556.774C623.264 714.662 653.554 674.768 653.554 623.792C653.554 577.249 624.742 532.922 528.7 532.922ZM317.409 247.752H527.223C643.95 247.752 700.837 305.377 700.837 381.472C700.837 432.448 674.979 472.342 624.742 494.505V495.983C689.755 512.975 725.955 559.518 725.955 623.792C725.955 699.148 672.024 775.981 556.035 775.981H317.409V247.752ZM387.593 472.342H516.141C609.966 472.342 631.391 430.97 631.391 385.166C631.391 344.532 599.623 308.332 528.7 308.332H387.593V472.342Z" fill="white"/>
<path opacity="0.2" d="M528.7 532.922H387.593V714.662H556.774C623.264 714.662 653.554 674.768 653.554 623.792C653.554 577.249 624.742 532.922 528.7 532.922ZM317.409 247.752H527.223C643.95 247.752 700.837 305.377 700.837 381.472C700.837 432.448 674.979 472.342 624.742 494.505V495.983C689.755 512.975 725.955 559.518 725.955 623.792C725.955 699.148 672.024 775.981 556.035 775.981H317.409V247.752ZM387.593 472.342H516.141C609.966 472.342 631.391 430.97 631.391 385.166C631.391 344.532 599.623 308.332 528.7 308.332H387.593V472.342Z" fill="white"/>
</svg>
